<?xml version="1.0" standalone="no"?><!DOCTYPE svg PUBLIC "-//W3C//DTD SVG 1.1//EN" "http://www.w3.org/Graphics/SVG/1.1/DTD/svg11.dtd"><svg class="icon" width="200px" height="190.33px" viewBox="0 0 1076 1024" version="1.1" xmlns="http://www.w3.org/2000/svg"><path d="M829.471277 635.144999c-12.226356 11.657689-14.728494 17.173766-12.226356 33.380796l5.061143 27.807853c-112.99428-1.364803-238.669851-6.539679-340.688843-20.98384-8.302549-1.251069-0.568668-5.686677-0.568668-5.686677l331.476426-229.798634c0 0 13.079358-8.131949-0.853002-10.292886-18.083634-2.957072-56.127506-8.188815-55.956906-8.245682-67.102793-8.245682-140.688399-12.681291-217.970345-12.681291-131.021047 0-251.521742 13.022491-347.285389 34.916199l9.724218 0c141.768868 0 292.408952 5.402344 428.491142 26.61365 8.586883 1.194202 0 6.539679 0 6.539679L297.653206 711.972011c0 0-13.875493 8.302549-1.023602 10.292886 34.347532 4.719942 70.401066 8.416283 107.990004 11.032154l0 0c42.820681 2.957072 87.461098 4.663075 133.409452 4.663075 124.595102 0 258.914422-13.875493 356.61154-37.247737l6.596546-1.307936c-16.434498 13.249958-43.730549 24.964514-71.993336 34.518132l47.256289 259.028156c5.11801 27.864719-10.74782 39.067474-35.314267 24.907647l-276.031321-159.454434c-18.936636-11.771422-36.735936-11.373355-56.013772 0.796135l-274.723385 158.6583c-24.50958 14.159827-40.318543 2.957072-35.0868-24.85078l61.70045-324.70928c3.184539-14.614761 2.957072-19.164103-8.302549-29.741323l-240.660188-221.211751c-20.472039-19.56217-14.159827-37.816405 13.93236-40.659743L332.740006 342.281113C356.624051 340.006442 361.116526 336.253235 371.011344 319.59127l144.327872-300.484034c12.396957-25.476315 32.641528-25.476315 44.981618 0l135.399789 300.484034c7.506414 19.675904 13.022491 23.485978 37.134003 25.703782l316.691065 31.390459c28.092186 2.786472 34.290665 20.926973 13.534292 40.204809l-233.722441 218.482146L829.471277 635.144999 829.471277 635.144999zM829.471277 635.144999" /></svg>